<svg version="1.1" viewBox="0.0 0.0 395.4488188976378 704.5380577427821" fill="none" stroke="none" stroke-linecap="square" stroke-miterlimit="10" xmlns:xlink="http://www.w3.org/1999/xlink" xmlns="http://www.w3.org/2000/svg"><clipPath id="p.0"><path d="m0 0l395.44882 0l0 704.5381l-395.44882 0l0 -704.5381z" clip-rule="nonzero"/></clipPath><g clip-path="url(#p.0)"><path fill="#000000" fill-opacity="0.0" d="m0 0l395.44882 0l0 704.5381l-395.44882 0z" fill-rule="evenodd"/><path fill="#000000" fill-opacity="0.0" d="m0 0l395.43307 0l0 704.53546l-395.43307 0z" fill-rule="evenodd"/><path fill="#ffffff" d="m17.953125 189.1375q-5.40625 0 -5.40625 -2.0625q0 -1.296875 1.484375 -2.046875q1.5 -0.75 4.671875 -1.3125q9.703125 -1.671875 11.578125 -14.546875q7.65625 -57.5 7.65625 -79.515625q0 -4.296875 -0.1875 -6.171875q-0.1875 -2.046875 -0.65625 -3.4375q-0.46875 -1.40625 -2.15625 -2.71875q-2.984375 -2.609375 -5.875 -3.546875q-2.890625 -0.9375 -8.109375 -2.046875q-1.875 -0.375 -3.0 -1.40625q-1.109375 -1.03125 -1.109375 -2.328125q0 -1.3125 1.578125 -1.6875q1.59375 -0.375 4.765625 -0.375q2.421875 0 14.0 0.75q11.5625 0.75 14.0 0.75q2.609375 0 3.546875 2.984375l1.296875 4.859375q1.6875 6.71875 2.8125 9.515625l29.484375 74.84375q0.5625 1.6875 2.421875 1.6875q1.3125 0 1.875 -1.125l36.765625 -76.53125q2.25 -8.390625 3.359375 -14.0q0.5625 -2.421875 1.875 -2.421875l6.71875 0q2.796875 0 13.4375 -0.9375q4.84375 -0.5625 7.84375 -0.5625q3.90625 0 3.90625 1.875q0 1.3125 -1.03125 2.0625q-1.015625 0.734375 -3.8125 1.859375q-1.6875 0.5625 -4.484375 1.6875q-2.796875 1.109375 -6.53125 2.609375q-2.046875 0.921875 -3.265625 2.609375q-1.21875 1.671875 -1.21875 3.734375q0 16.421875 0.65625 30.796875q0.65625 14.375 1.96875 33.59375q1.109375 15.3125 1.484375 23.890625q0.1875 5.78125 3.546875 8.875q3.359375 3.078125 10.453125 4.375q3.171875 0.5625 4.65625 1.3125q1.5 0.75 1.5 2.046875q0 2.0625 -5.40625 2.0625q-6.90625 0 -11.953125 -0.5625q-5.96875 -0.375 -9.890625 -0.375q-3.171875 0 -8.390625 0.375q-4.109375 0.5625 -11.203125 0.5625q-5.421875 0 -5.421875 -2.0625q0 -2.609375 6.171875 -3.359375q5.40625 -0.734375 7.453125 -3.71875q2.0625 -3.0 2.0625 -9.71875q0 -19.03125 -0.65625 -35.171875q-0.65625 -16.15625 -0.84375 -19.140625q-0.375 -4.671875 -0.734375 -14.375q-0.1875 -1.859375 -1.125 -1.859375q-0.75 0 -1.875 1.859375l-42.921875 87.546875q-0.1875 1.109375 -1.6875 1.109375q-1.109375 0 -1.671875 -1.296875q-12.875 -38.265625 -34.34375 -88.671875q-0.375 -0.921875 -1.3125 -0.921875q-0.9375 0 -1.125 0.921875q-3.359375 24.828125 -4.671875 38.265625q-1.296875 13.4375 -1.296875 30.625q0 5.21875 3.265625 9.328125q3.265625 4.109375 8.875 5.21875q3.171875 0.5625 4.65625 1.3125q1.5 0.75 1.5 2.046875q0 2.0625 -5.421875 2.0625q-6.90625 0 -10.640625 -0.5625q-3.71875 -0.375 -6.90625 -0.375q-2.796875 0 -6.53125 0.375q-7.28125 0.5625 -10.453125 0.5625z" fill-rule="nonzero"/><path fill="#ffffff" d="m184.66165 189.09062q-1.078125 0 -2.296875 -0.859375q-1.21875 -0.859375 -2.015625 -2.171875q-0.796875 -1.3125 -0.796875 -2.46875q0 -1.984375 1.046875 -3.125q1.0625 -1.15625 3.484375 -2.1875l6.53125 -2.6875q1.21875 -0.515625 1.46875 -0.890625q0.265625 -0.390625 0.328125 -1.671875l0.125 -4.09375q0.0625 -1.71875 -0.96875 -2.90625q-1.015625 -1.1875 -2.8125 -1.1875q-0.953125 0 -1.921875 0.328125q-0.953125 0.3125 -1.59375 0.828125q-0.640625 0.4375 -0.640625 1.84375l0.0625 1.15625q0 0.515625 -1.640625 1.390625q-1.625 0.859375 -2.578125 0.859375q-0.328125 0 -0.515625 -0.15625q-0.1875 -0.171875 -0.1875 -0.421875q0 -1.03125 0.671875 -2.203125q0.671875 -1.1875 1.890625 -2.21875q2.171875 -1.984375 4.890625 -3.265625q2.71875 -1.28125 4.640625 -1.28125q2.296875 0 3.796875 1.640625q1.515625 1.625 1.453125 4.0625l-0.328125 15.359375q-0.0625 1.34375 0.578125 2.171875q0.640625 0.828125 1.734375 0.828125q1.59375 0 2.359375 -0.703125q0.328125 -0.3125 0.515625 -0.3125q0.328125 0 0.515625 0.1875q0.1875 0.1875 0.1875 0.515625q0 0.25 -0.1875 0.671875q-0.1875 0.421875 -0.515625 0.734375q-1.015625 1.03125 -2.203125 1.625q-1.1875 0.609375 -2.203125 0.609375q-2.953125 0 -4.671875 -3.328125l-0.203125 0q-2.109375 1.734375 -4.03125 2.53125q-1.921875 0.796875 -3.96875 0.796875zm3.015625 -3.0625q2.234375 0 3.765625 -1.546875q0.390625 -0.375 0.578125 -0.953125q0.203125 -0.578125 0.265625 -1.671875l0.125 -3.125l0 -0.390625q0 -0.515625 -0.140625 -0.734375q-0.125 -0.21875 -0.4375 -0.21875q-0.390625 0 -1.28125 0.3125q-3.203125 1.15625 -4.609375 2.4375q-1.40625 1.28125 -1.40625 2.5q0 1.59375 0.921875 2.5q0.9375 0.890625 2.21875 0.890625zm17.84845 2.359375q-1.28125 0 -1.28125 -0.703125q0 -0.4375 0.3125 -0.59375q0.328125 -0.171875 1.171875 -0.421875q1.34375 -0.328125 2.046875 -0.796875q0.703125 -0.484375 0.703125 -1.640625l0 -13.765625q0 -2.046875 -0.453125 -3.125q-0.453125 -1.09375 -1.921875 -1.484375q-0.640625 -0.1875 -0.640625 -0.828125q0 -0.703125 0.578125 -0.765625q1.984375 -0.515625 3.359375 -1.28125q1.375 -0.765625 3.046875 -1.984375q0.4375 -0.3125 0.703125 -0.3125q0.3125 0 0.3125 0.4375l-0.125 1.34375q-0.0625 0.515625 -0.125 1.25q-0.0625 0.734375 -0.0625 1.515625q0 0.625 0.125 0.765625q2.296875 -2.1875 4.796875 -3.234375q2.5 -1.0625 5.5 -1.0625q3.078125 0 5.15625 2.5625q2.078125 2.5625 2.078125 6.34375l0 13.625q0 1.15625 0.671875 1.578125q0.671875 0.40625 2.078125 0.859375q0.765625 0.25 1.109375 0.484375q0.359375 0.21875 0.359375 0.65625q0 0.578125 -1.265625 0.578125q-1.734375 0 -2.765625 -0.1875q-1.265625 -0.125 -2.359375 -0.125q-1.03125 0 -2.4375 0.125q-1.015625 0.1875 -2.8125 0.1875q-1.28125 0 -1.28125 -0.578125q0 -0.4375 0.34375 -0.65625q0.359375 -0.234375 1.125 -0.484375q1.40625 -0.453125 2.078125 -0.859375q0.671875 -0.421875 0.671875 -1.578125l0 -13.4375q0 -2.75 -1.5625 -4.34375q-1.5625 -1.609375 -4.1875 -1.671875q-3.96875 0 -7.109375 2.5625q-0.515625 0.5 -0.515625 1.46875l0 15.421875q0 1.15625 0.703125 1.640625q0.703125 0.46875 2.046875 0.796875q0.78125 0.1875 1.125 0.421875q0.359375 0.21875 0.359375 0.59375q0 0.703125 -1.28125 0.703125q-1.671875 0 -2.75 -0.1875q-1.40625 -0.125 -2.4375 -0.125q-1.03125 0 -2.4375 0.125q-1.015625 0.1875 -2.75 0.1875zm33.791946 0q-1.28125 0 -1.28125 -0.703125q0 -0.4375 0.3125 -0.59375q0.328125 -0.171875 1.171875 -0.421875q1.34375 -0.328125 2.046875 -0.796875q0.703125 -0.484375 0.703125 -1.640625l0 -13.765625q0 -2.046875 -0.453125 -3.125q-0.453125 -1.09375 -1.921875 -1.484375q-0.640625 -0.1875 -0.640625 -0.828125q0 -0.703125 0.578125 -0.765625q1.984375 -0.515625 3.359375 -1.28125q1.375 -0.765625 3.046875 -1.984375q0.4375 -0.3125 0.703125 -0.3125q0.3125 0 0.3125 0.4375l-0.125 1.34375q-0.0625 0.515625 -0.125 1.25q-0.0625 0.734375 -0.0625 1.515625q0 0.625 0.125 0.765625q2.296875 -2.1875 4.796875 -3.234375q2.5 -1.0625 5.5000153 -1.0625q3.078125 0 5.15625 2.5625q2.078125 2.5625 2.078125 6.34375l0 13.625q0 1.15625 0.671875 1.578125q0.671875 0.40625 2.078125 0.859375q0.765625 0.25 1.109375 0.484375q0.359375 0.21875 0.359375 0.65625q0 0.578125 -1.265625 0.578125q-1.734375 0 -2.765625 -0.1875q-1.265625 -0.125 -2.359375 -0.125q-1.03125 0 -2.4375 0.125q-1.015625 0.1875 -2.8125 0.1875q-1.2812653 0 -1.2812653 -0.578125q0 -0.4375 0.34376526 -0.65625q0.359375 -0.234375 1.125 -0.484375q1.40625 -0.453125 2.078125 -0.859375q0.671875 -0.421875 0.671875 -1.578125l0 -13.4375q0 -2.75 -1.5625 -4.34375q-1.5625 -1.609375 -4.1875153 -1.671875q-3.96875 0 -7.109375 2.5625q-0.515625 0.5 -0.515625 1.46875l0 15.421875q0 1.15625 0.703125 1.640625q0.703125 0.46875 2.046875 0.796875q0.78125 0.1875 1.125 0.421875q0.359375 0.21875 0.359375 0.59375q0 0.703125 -1.28125 0.703125q-1.671875 0 -2.75 -0.1875q-1.40625 -0.125 -2.4375 -0.125q-1.03125 0 -2.4375 0.125q-1.015625 0.1875 -2.75 0.1875zm33.791946 0q-1.28125 0 -1.28125 -0.703125q0 -0.4375 0.34375 -0.625q0.359375 -0.203125 1.140625 -0.390625q1.46875 -0.390625 2.109375 -0.859375q0.640625 -0.484375 0.640625 -1.578125l0 -13.890625q0 -4.21875 -2.890625 -4.671875q-0.640625 -0.0625 -0.640625 -0.828125q0 -0.703125 0.578125 -0.765625q3.90625 -0.90625 6.71875 -3.203125q0.578125 -0.453125 0.90625 -0.453125q0.375 0 0.375 0.328125q0 0.703125 -0.1875 2.421875q-0.0625 0.78125 -0.234375 2.859375q-0.15625 2.078125 -0.15625 3.359375l0 14.84375q0 1.03125 0.671875 1.546875q0.671875 0.5 2.078125 0.890625q0.78125 0.1875 1.125 0.390625q0.359375 0.1875 0.359375 0.625q0 0.703125 -1.28125 0.703125q-1.609375 0 -2.6875 -0.1875q-1.40625 -0.125 -2.5 -0.125q-1.03125 0 -2.4375 0.125q-1.015625 0.1875 -2.75 0.1875zm5.125 -33.21875q-1.34375 0 -2.28125 -0.921875q-0.921875 -0.921875 -0.921875 -2.265625q0 -1.40625 0.921875 -2.328125q0.9375 -0.9375 2.28125 -0.9375q1.40625 0 2.328125 0.9375q0.921875 0.921875 0.921875 2.328125q0 1.34375 -0.921875 2.265625q-0.921875 0.921875 -2.328125 0.921875zm10.554993 33.21875q-1.28125 0 -1.28125 -0.703125q0 -0.4375 0.3125 -0.59375q0.328125 -0.171875 1.171875 -0.421875q1.34375 -0.328125 2.046875 -0.796875q0.703125 -0.484375 0.703125 -1.640625l0 -13.765625q0 -2.046875 -0.453125 -3.125q-0.453125 -1.09375 -1.921875 -1.484375q-0.640625 -0.1875 -0.640625 -0.828125q0 -0.703125 0.578125 -0.765625q1.984375 -0.515625 3.359375 -1.28125q1.375 -0.765625 3.046875 -1.984375q0.4375 -0.3125 0.703125 -0.3125q0.3125 0 0.3125 0.4375l-0.125 1.34375q-0.0625 0.515625 -0.125 1.25q-0.0625 0.734375 -0.0625 1.515625q0 0.625 0.125 0.765625q2.296875 -2.1875 4.796875 -3.234375q2.5 -1.0625 5.5 -1.0625q3.078125 0 5.15625 2.5625q2.078125 2.5625 2.078125 6.34375l0 13.625q0 1.15625 0.671875 1.578125q0.671875 0.40625 2.078125 0.859375q0.765625 0.25 1.109375 0.484375q0.359375 0.21875 0.359375 0.65625q0 0.578125 -1.265625 0.578125q-1.734375 0 -2.765625 -0.1875q-1.265625 -0.125 -2.359375 -0.125q-1.03125 0 -2.4375 0.125q-1.015625 0.1875 -2.8125 0.1875q-1.28125 0 -1.28125 -0.578125q0 -0.4375 0.34375 -0.65625q0.359375 -0.234375 1.125 -0.484375q1.40625 -0.453125 2.078125 -0.859375q0.671875 -0.421875 0.671875 -1.578125l0 -13.4375q0 -2.75 -1.5625 -4.34375q-1.5625 -1.609375 -4.1875 -1.671875q-3.96875 0 -7.109375 2.5625q-0.515625 0.5 -0.515625 1.46875l0 15.421875q0 1.15625 0.703125 1.640625q0.703125 0.46875 2.046875 0.796875q0.78125 0.1875 1.125 0.421875q0.359375 0.21875 0.359375 0.59375q0 0.703125 -1.28125 0.703125q-1.671875 0 -2.75 -0.1875q-1.40625 -0.125 -2.4375 -0.125q-1.03125 0 -2.4375 0.125q-1.015625 0.1875 -2.75 0.1875zm58.370056 -25.015625q0.328125 0 0.578125 0.265625q0.25 0.25 0.25 0.6875q0 0.578125 -0.640625 1.21875q-0.3125 0.3125 -0.5 0.3125l-1.734375 0q-1.734375 0 -1.921875 0.515625q-0.375 1.15625 -0.375 2.953125q0 3.1875 -1.421875 5.984375q-1.40625 2.78125 -3.75 4.453125q-2.328125 1.65625 -5.015625 1.65625q-1.84375 0 -3.390625 -0.640625q-1.15625 0.578125 -1.921875 1.34375q-0.765625 0.765625 -0.765625 1.34375q0 2.6875 8.328125 3.203125q5.875 0.3125 8.75 1.90625q2.890625 1.609375 2.890625 4.546875q0 3.203125 -2.109375 6.40625q-2.109375 3.203125 -5.4375 5.21875q-3.328125 2.015625 -6.71875 2.015625q-5.4375 0 -8.609375 -2.046875q-3.171875 -2.046875 -3.171875 -5.640625q0 -1.65625 0.515625 -2.78125q0.515625 -1.125 1.59375 -2.015625l2.5625 -2.046875l2.8125 -2.234375q-3.0 -0.578125 -4.3125 -1.671875q-1.3125 -1.078125 -1.3125 -2.9375q0 -1.15625 1.46875 -2.375q1.53125 -1.15625 2.359375 -1.828125q0.84375 -0.671875 1.21875 -1.234375q-2.296875 -1.34375 -3.703125 -3.546875q-1.40625 -2.21875 -1.40625 -4.71875q0 -2.875 1.53125 -5.171875q1.53125 -2.3125 4.09375 -3.625q2.5625 -1.3125 5.5 -1.3125q1.921875 0 4.609375 0.890625q0.453125 0.203125 1.34375 0.453125q1.40625 0.390625 2.296875 0.515625q0.90625 0.125 2.0 0.125q0.703125 0 2.109375 -0.125l1.40625 -0.0625zm-14.140625 15.796875q2.359375 0 3.984375 -2.453125q1.640625 -2.46875 1.640625 -6.109375q0 -1.796875 -0.859375 -3.453125q-0.859375 -1.671875 -2.265625 -2.65625q-1.40625 -1.0 -2.953125 -1.0q-1.46875 0 -2.78125 1.03125q-1.3125 1.015625 -2.109375 2.75q-0.796875 1.71875 -0.796875 3.640625q0 2.171875 0.828125 4.09375q0.828125 1.921875 2.234375 3.046875q1.40625 1.109375 3.078125 1.109375zm9.59375 16.0q0 -2.109375 -2.234375 -3.203125q-2.234375 -1.078125 -7.359375 -1.390625q-1.859375 -0.140625 -2.75 -0.265625q-2.75 1.859375 -3.875 3.609375q-1.125 1.765625 -1.125 4.203125q0 2.5625 2.265625 4.3125q2.28125 1.765625 5.609375 1.765625q3.78125 0 6.078125 -1.734375q1.609375 -1.203125 2.5 -3.15625q0.890625 -1.953125 0.890625 -4.140625z" fill-rule="nonzero"/><path fill="#ffffff" d="m9.0 200.33333l168.17728 0l0 16.800003l-168.17728 0l0 -16.800003z" fill-rule="nonzero"/><path fill="#ffffff" d="m69.65625 413.1375q-20.53125 -0.9375 -30.234375 -0.9375q-3.171875 0 -8.390625 0.375q-4.109375 0.5625 -11.203125 0.5625q-5.421875 0 -5.421875 -2.4375q0 -1.484375 1.125 -1.859375q1.125 -0.375 5.046875 -1.125q7.09375 -1.296875 9.796875 -4.28125q2.703125 -3.0 2.703125 -9.71875l0 -83.984375q0 -6.53125 -2.703125 -9.421875q-2.703125 -2.90625 -9.796875 -4.203125q-3.546875 -0.5625 -4.859375 -1.21875q-1.3125 -0.65625 -1.3125 -2.140625q0 -2.4375 5.421875 -2.4375l10.640625 0.1875q2.796875 0.1875 10.078125 0.1875q7.65625 0 19.21875 -0.9375q3.921875 -0.1875 7.1875 -0.359375q3.265625 -0.1875 5.515625 -0.1875q24.265625 0 40.125 7.75q15.859375 7.734375 23.234375 21.078125q7.375 13.34375 7.375 30.328125q0 17.546875 -8.78125 32.578125q-8.765625 15.03125 -23.703125 23.8125q-14.921875 8.765625 -32.46875 8.765625l-8.59375 -0.375zm6.359375 -6.15625q14.359375 0 25.65625 -7.09375q11.296875 -7.09375 17.546875 -19.6875q6.25 -12.609375 6.25 -28.65625q0 -17.171875 -7.46875 -30.046875q-7.453125 -12.890625 -19.5 -19.703125q-12.03125 -6.8125 -25.109375 -6.8125q-9.890625 0 -14.84375 0.5625q-4.9375 0.5625 -7.734375 2.984375q-2.796875 2.421875 -2.796875 7.84375l0 83.25q0 10.265625 7.546875 13.8125q7.5625 3.546875 20.453125 3.546875z" fill-rule="nonzero"/><path fill="#ffffff" d="m157.22318 413.09064q-1.078125 0 -2.296875 -0.859375q-1.21875 -0.859375 -2.015625 -2.171875q-0.796875 -1.3125 -0.796875 -2.46875q0 -1.984375 1.046875 -3.125q1.0625 -1.15625 3.484375 -2.1875l6.53125 -2.6875q1.21875 -0.515625 1.46875 -0.890625q0.265625 -0.390625 0.328125 -1.671875l0.125 -4.09375q0.0625 -1.71875 -0.96875 -2.90625q-1.015625 -1.1875 -2.8125 -1.1875q-0.953125 0 -1.921875 0.328125q-0.953125 0.3125 -1.59375 0.828125q-0.640625 0.4375 -0.640625 1.84375l0.0625 1.15625q0 0.515625 -1.640625 1.390625q-1.625 0.859375 -2.578125 0.859375q-0.328125 0 -0.515625 -0.15625q-0.1875 -0.171875 -0.1875 -0.421875q0 -1.03125 0.671875 -2.203125q0.671875 -1.1875 1.890625 -2.21875q2.171875 -1.984375 4.890625 -3.265625q2.71875 -1.28125 4.640625 -1.28125q2.296875 0 3.796875 1.640625q1.515625 1.625 1.453125 4.0625l-0.328125 15.359375q-0.0625 1.34375 0.578125 2.171875q0.640625 0.828125 1.734375 0.828125q1.59375 0 2.359375 -0.703125q0.328125 -0.3125 0.515625 -0.3125q0.328125 0 0.515625 0.1875q0.1875 0.1875 0.1875 0.515625q0 0.25 -0.1875 0.671875q-0.1875 0.421875 -0.515625 0.734375q-1.015625 1.03125 -2.203125 1.625q-1.1875 0.609375 -2.203125 0.609375q-2.953125 0 -4.671875 -3.328125l-0.203125 0q-2.109375 1.734375 -4.03125 2.53125q-1.921875 0.796875 -3.96875 0.796875zm3.015625 -3.0625q2.234375 0 3.765625 -1.546875q0.390625 -0.375 0.578125 -0.953125q0.203125 -0.578125 0.265625 -1.671875l0.125 -3.125l0 -0.390625q0 -0.515625 -0.140625 -0.734375q-0.125 -0.21875 -0.4375 -0.21875q-0.390625 0 -1.28125 0.3125q-3.203125 1.15625 -4.609375 2.4375q-1.40625 1.28125 -1.40625 2.5q0 1.59375 0.921875 2.5q0.9375 0.890625 2.21875 0.890625zm24.2547 3.0625q-1.984375 0 -3.71875 -0.609375q-1.71875 -0.59375 -2.9375 -1.6875q-0.515625 -1.03125 -0.703125 -5.125q0 -0.578125 0.828125 -0.578125q0.703125 0 0.765625 0.453125q0.765625 2.9375 2.53125 4.390625q1.765625 1.4375 3.8125 1.4375q1.84375 0 3.15625 -1.25q1.3125 -1.25 1.3125 -3.109375q0 -1.65625 -1.125 -2.90625q-1.109375 -1.25 -4.046875 -3.109375q-3.328125 -2.046875 -4.703125 -3.796875q-1.375 -1.765625 -1.375 -4.140625q0 -3.203125 2.234375 -5.28125q2.234375 -2.078125 6.390625 -2.078125q1.796875 0 3.109375 0.359375q1.3125 0.34375 2.015625 0.859375q0.515625 0.703125 0.859375 2.21875q0.359375 1.5 0.359375 2.84375q0 0.4375 -0.640625 0.4375q-0.390625 0 -0.78125 -0.15625q-0.375 -0.15625 -0.4375 -0.421875q-0.890625 -2.171875 -2.140625 -3.25q-1.25 -1.09375 -3.046875 -1.09375q-1.65625 0 -2.875 1.03125q-1.21875 1.015625 -1.21875 2.75q0 1.53125 0.921875 2.65625q0.9375 1.109375 3.5 2.578125q4.03125 2.3125 5.6875 4.140625q1.671875 1.8125 1.671875 4.640625q0 3.453125 -2.625 5.625q-2.625 2.171875 -6.78125 2.171875zm13.953217 -0.703125q-1.28125 0 -1.28125 -0.703125q0 -0.375 0.3125 -0.5625q0.328125 -0.203125 1.15625 -0.453125q1.28125 -0.390625 1.984375 -0.9375q0.703125 -0.546875 0.765625 -1.6875l0 -32.0625q0 -4.09375 -2.8125 -4.609375q-0.578125 -0.125 -0.578125 -0.90625q0 -0.5625 0.515625 -0.765625q5.046875 -1.59375 7.09375 -2.484375q0.265625 -0.140625 0.390625 -0.140625q0.453125 0 0.453125 0.453125q0 0.3125 -0.296875 1.953125q-0.28125 1.625 -0.28125 6.75l0 11.140625q0 0.953125 0.09375 1.4375q0.09375 0.484375 0.359375 0.921875q5.4375 -4.03125 9.71875 -4.03125q3.140625 0 5.21875 2.5q2.078125 2.5 2.078125 6.203125l0 13.4375q0 2.0625 2.625 2.828125q0.765625 0.1875 1.109375 0.421875q0.359375 0.21875 0.359375 0.59375q0 0.703125 -1.28125 0.703125q-1.59375 0 -2.6875 -0.1875q-1.28125 -0.125 -2.296875 -0.125q-1.03125 0 -2.3125 0.125q-1.015625 0.1875 -2.6875 0.1875q-1.28125 0 -1.28125 -0.703125q0 -0.375 0.28125 -0.53125q0.296875 -0.171875 1.203125 -0.484375q1.140625 -0.390625 1.8125 -1.03125q0.671875 -0.640625 0.671875 -1.796875l0 -13.046875q0 -1.53125 -0.890625 -2.84375q-0.890625 -1.3125 -2.265625 -2.109375q-1.375 -0.8125 -2.796875 -0.8125q-1.34375 0 -2.90625 0.390625q-1.5625 0.375 -2.40625 1.015625q-1.015625 0.84375 -1.375 1.765625q-0.34375 0.921875 -0.34375 2.84375l0 13.0q0.0625 1.140625 0.703125 1.6875q0.640625 0.546875 1.796875 0.9375q0.703125 0.1875 1.046875 0.421875q0.359375 0.21875 0.359375 0.59375q0 0.390625 -0.296875 0.546875q-0.28125 0.15625 -0.984375 0.15625q-1.671875 0 -2.625 -0.1875q-1.15625 -0.125 -2.234375 -0.125q-1.03125 0 -2.4375 0.125q-1.03125 0.1875 -2.75 0.1875z" fill-rule="nonzero"/><path fill="#ffffff" d="m9.0 424.33334l140.7388 0l0 16.799988l-140.7388 0l0 -16.799988z" fill-rule="nonzero"/><path fill="#ffffff" d="m17.953125 637.1375q-5.40625 0 -5.40625 -2.0625q0 -1.296875 1.484375 -2.046875q1.5 -0.75 4.671875 -1.3125q7.46875 -1.296875 11.015625 -4.46875q3.546875 -3.171875 3.546875 -9.53125l0 -83.984375q0 -6.71875 -2.890625 -9.890625q-2.890625 -3.1875 -9.609375 -3.734375q-3.0 -0.1875 -4.59375 -1.3125q-1.578125 -1.125 -1.578125 -2.421875q0 -2.0625 5.421875 -2.0625q8.390625 0 11.203125 0.1875l8.203125 0q2.796875 0 8.03125 -0.375q9.515625 -0.5625 12.6875 -0.5625q22.40625 0 32.859375 6.453125q10.453125 6.4375 10.453125 21.359375q0 5.796875 -1.96875 10.65625q-1.953125 4.84375 -4.375 7.265625q-3.0 2.984375 -5.515625 4.578125q-2.515625 1.578125 -7.0 3.453125q-0.75 0.375 -0.75 1.03125q0 0.640625 0.75 0.828125q7.84375 2.625 13.15625 5.609375q5.328125 2.984375 9.328125 9.046875q4.015625 6.0625 4.015625 16.140625q0 9.53125 -2.984375 15.59375q-2.984375 6.0625 -7.0 9.140625q-4.0 3.078125 -9.421875 5.890625q-12.6875 6.34375 -31.734375 6.34375l-5.59375 -0.1875q-5.046875 -0.5625 -12.140625 -0.5625q-4.65625 0 -11.375 0.375q-5.234375 0.5625 -12.890625 0.5625zm38.453125 -70.1875q12.890625 0 22.59375 -5.40625q2.984375 -1.6875 5.6875 -6.15625q2.703125 -4.484375 2.703125 -11.578125q0 -10.078125 -5.875 -17.359375q-5.875 -7.28125 -21.375 -7.28125q-7.28125 0 -9.796875 1.96875q-2.515625 1.953125 -2.515625 6.421875l0 32.484375q0 6.90625 8.578125 6.90625zm6.171875 62.34375q8.203125 0 15.296875 -3.734375q7.09375 -3.734375 11.390625 -10.265625q4.296875 -6.53125 4.296875 -14.375q0 -9.515625 -4.203125 -15.296875q-4.203125 -5.796875 -9.609375 -8.78125q-8.40625 -4.65625 -21.28125 -4.65625q-5.421875 0 -8.03125 2.140625q-2.609375 2.140625 -2.609375 4.578125l0 37.140625q0 7.46875 3.546875 10.359375q3.546875 2.890625 11.203125 2.890625z" fill-rule="nonzero"/><path fill="#ffffff" d="m133.53596 637.09064q-3.515625 0 -6.4375 -1.65625q-2.90625 -1.671875 -4.609375 -4.609375q-1.6875 -2.9375 -1.6875 -6.59375q0 -3.515625 1.890625 -6.90625q1.890625 -3.390625 5.125 -5.5q3.234375 -2.125 7.0 -2.125q3.65625 0 6.65625 1.765625q3.015625 1.765625 4.765625 4.734375q1.765625 2.96875 1.765625 6.375q0 3.828125 -1.671875 7.15625q-1.65625 3.328125 -4.921875 5.34375q-3.265625 2.015625 -7.875 2.015625zm1.34375 -1.921875q4.8125 0 6.59375 -3.515625q1.28125 -2.5 1.28125 -7.546875q0 -3.078125 -1.15625 -5.953125q-1.140625 -2.875 -3.1875 -4.671875q-2.046875 -1.796875 -4.671875 -1.796875q-1.859375 0 -3.203125 0.578125q-1.34375 0.578125 -2.4375 1.984375q-1.140625 1.46875 -1.59375 3.625q-0.453125 2.140625 -0.453125 4.890625q0 3.203125 1.15625 6.046875q1.15625 2.84375 3.171875 4.609375q2.015625 1.75 4.5 1.75zm22.851822 1.921875q-1.078125 0 -2.296875 -0.859375q-1.21875 -0.859375 -2.015625 -2.171875q-0.796875 -1.3125 -0.796875 -2.46875q0 -1.984375 1.046875 -3.125q1.0625 -1.15625 3.484375 -2.1875l6.53125 -2.6875q1.21875 -0.515625 1.46875 -0.890625q0.265625 -0.390625 0.328125 -1.671875l0.125 -4.09375q0.0625 -1.71875 -0.96875 -2.90625q-1.015625 -1.1875 -2.8125 -1.1875q-0.953125 0 -1.921875 0.328125q-0.953125 0.3125 -1.59375 0.828125q-0.640625 0.4375 -0.640625 1.84375l0.0625 1.15625q0 0.515625 -1.640625 1.390625q-1.625 0.859375 -2.578125 0.859375q-0.328125 0 -0.515625 -0.15625q-0.1875 -0.171875 -0.1875 -0.421875q0 -1.03125 0.671875 -2.203125q0.671875 -1.1875 1.890625 -2.21875q2.171875 -1.984375 4.890625 -3.265625q2.71875 -1.28125 4.640625 -1.28125q2.296875 0 3.796875 1.640625q1.515625 1.625 1.453125 4.0625l-0.328125 15.359375q-0.0625 1.34375 0.578125 2.171875q0.640625 0.828125 1.734375 0.828125q1.59375 0 2.359375 -0.703125q0.328125 -0.3125 0.515625 -0.3125q0.328125 0 0.515625 0.1875q0.1875 0.1875 0.1875 0.515625q0 0.25 -0.1875 0.671875q-0.1875 0.421875 -0.515625 0.734375q-1.015625 1.03125 -2.203125 1.625q-1.1875 0.609375 -2.203125 0.609375q-2.953125 0 -4.671875 -3.328125l-0.203125 0q-2.109375 1.734375 -4.03125 2.53125q-1.921875 0.796875 -3.96875 0.796875zm3.015625 -3.0625q2.234375 0 3.765625 -1.546875q0.390625 -0.375 0.578125 -0.953125q0.203125 -0.578125 0.265625 -1.671875l0.125 -3.125l0 -0.390625q0 -0.515625 -0.140625 -0.734375q-0.125 -0.21875 -0.4375 -0.21875q-0.390625 0 -1.28125 0.3125q-3.203125 1.15625 -4.609375 2.4375q-1.40625 1.28125 -1.40625 2.5q0 1.59375 0.921875 2.5q0.9375 0.890625 2.21875 0.890625zm18.176575 2.359375q-1.28125 0 -1.28125 -0.703125q0 -0.4375 0.3125 -0.59375q0.328125 -0.171875 1.15625 -0.421875q2.4375 -0.578125 2.4375 -2.4375l0 -13.765625q0 -1.90625 -0.578125 -3.09375q-0.578125 -1.1875 -2.046875 -1.515625q-0.265625 -0.0625 -0.453125 -0.3125q-0.1875 -0.25 -0.1875 -0.515625q0 -0.25 0.1875 -0.46875q0.1875 -0.234375 0.390625 -0.296875q2.546875 -0.828125 6.328125 -3.140625q0.703125 -0.4375 0.96875 -0.4375q0.3125 0 0.3125 0.4375q0 1.734375 -0.1875 4.8125q0 0.125 0.125 0.125q1.59375 -1.921875 3.578125 -3.140625q1.984375 -1.21875 3.78125 -1.21875q1.34375 0 2.203125 0.578125q0.875 0.578125 0.875 1.46875q0 1.03125 -0.8125 2.1875q-0.796875 1.140625 -1.6875 1.140625q-0.640625 0 -1.796875 -0.578125q-0.1875 -0.0625 -0.859375 -0.3125q-0.671875 -0.25 -1.1875 -0.25q-1.859375 0 -3.140625 1.21875q-1.28125 1.203125 -1.28125 4.15625l0 12.921875q0 0.828125 0.828125 1.375q0.84375 0.546875 2.578125 1.0625q0.765625 0.25 1.109375 0.453125q0.359375 0.1875 0.359375 0.5625q0 0.703125 -1.28125 0.703125q-1.734375 0 -3.015625 -0.1875q-1.53125 -0.125 -2.5625 -0.125q-1.015625 0 -2.421875 0.125q-1.03125 0.1875 -2.75 0.1875zm41.079086 1.03125q-0.125 0 -0.421875 -0.265625q-0.28125 -0.25 -0.28125 -0.375l0.125 -1.671875q0.203125 -1.140625 0.203125 -2.171875l0 -0.375q-1.15625 1.78125 -3.34375 3.15625q-2.171875 1.375 -5.046875 1.375q-3.515625 0 -6.203125 -1.84375q-2.6875 -1.859375 -4.171875 -4.890625q-1.46875 -3.046875 -1.46875 -6.3125q0 -3.78125 1.765625 -7.078125q1.765625 -3.296875 5.015625 -5.28125q3.265625 -1.984375 7.625 -1.984375q1.21875 0 2.5 0.234375q1.28125 0.21875 2.109375 0.46875q0.578125 0.203125 0.828125 0.203125q0.1875 0 0.3125 -0.390625q0.140625 -0.390625 0.140625 -1.15625l0 -9.078125q0 -2.4375 -0.78125 -3.390625q-0.765625 -0.96875 -2.421875 -1.28125q-0.578125 -0.140625 -0.578125 -0.84375q0 -0.5625 0.515625 -0.765625q3.390625 -0.828125 5.046875 -1.5625q1.671875 -0.734375 1.859375 -0.796875q0.515625 -0.203125 0.84375 -0.203125q0.375 0 0.4375 0.390625q0 0.390625 -0.21875 2.4375q-0.21875 2.046875 -0.21875 6.265625l0 28.921875q0 2.25 0.3125 3.21875q0.3125 0.953125 1.03125 0.953125q1.078125 0 2.75 -0.203125l0.3125 0q0.828125 0 0.828125 0.578125q0 0.453125 -0.28125 0.8125q-0.28125 0.34375 -0.609375 0.34375q-3.453125 0.453125 -7.484375 2.171875q-0.703125 0.390625 -1.03125 0.390625zm-6.453125 -3.65625q1.65625 0 3.25 -0.859375q1.609375 -0.859375 2.828125 -2.265625l0.0625 -11.53125q0 -1.71875 -1.0 -3.375q-0.984375 -1.671875 -2.8125 -2.71875q-1.828125 -1.0625 -4.0625 -1.0625q-1.734375 0 -3.53125 0.953125q-1.78125 0.953125 -3.0625 3.328125q-1.28125 2.375 -1.28125 6.34375q0 4.40625 1.65625 6.90625q1.671875 2.5 3.84375 3.390625q2.1875 0.890625 4.109375 0.890625z" fill-rule="nonzero"/><path fill="#ffffff" d="m9.0 648.3334l109.567215 0l0 16.799988l-109.567215 0l0 -16.799988z" fill-rule="nonzero"/></g></svg>